<?xml version="1.0" encoding="utf-8"?>
<!-- Generator: Adobe Illustrator 27.5.0, SVG Export Plug-In . SVG Version: 6.00 Build 0)  -->
<svg version="1.1" xmlns="http://www.w3.org/2000/svg" xmlns:xlink="http://www.w3.org/1999/xlink" x="0px" y="0px"
	 viewBox="0 0 500 500" style="enable-background:new 0 0 500 500;" xml:space="preserve">
<g id="BACKGROUND">
	<rect style="fill:#EDF0F7;" width="500" height="500"/>
</g>
<g id="OBJECTS">
	<ellipse style="fill:#D3D8EB;" cx="250" cy="414.761" rx="71.416" ry="12.369"/>
	<path style="fill:#D3D8EB;" d="M250,93.36c-67.954,0-143.357,31.053-143.357,80.922c0,63.739,76.215,183.838,143.357,183.838
		S393.356,238.02,393.356,174.281C393.356,124.412,317.954,93.36,250,93.36z"/>
	<g>
		<path style="fill:#292F44;" d="M226.574,184.552c6.928,5.612,11.659,13.564,14.751,21.927c3.094,8.362,4.667,17.196,6.322,26.486
			c-3.232,2.555-5.625,6.152-7.43,10.112c-5.152-7.993-6.45-17.806-7.307-27.277C232.053,206.329,231.442,196.574,226.574,184.552z"
			/>
		<path style="fill:#292F44;" d="M230.333,141.396c0.018-2.273-0.986-4.536-2.683-6.049c-0.811-0.723-1.819-1.293-2.906-1.322
			c-1.086-0.029-2.232,0.599-2.558,1.635c-0.321,1.019,0.214,2.152,1.028,2.843c0.815,0.691,1.861,1.034,2.879,1.357
			C227.112,140.183,228.159,140.516,230.333,141.396z"/>
		<path style="fill:#292F44;" d="M239.333,171.757c-0.866-2.001-2.946-3.269-5.08-3.714c-2.135-0.444-4.346-0.191-6.508,0.09
			c-2.163,0.281-4.36,0.586-6.513,0.24c1.011,5.641,3.979,9.815,8.075,11.285c2.539,0.911,5.542,0.776,7.748-0.778
			C239.261,177.327,240.405,174.233,239.333,171.757z M235.247,176.235c-0.944,0.8-2.532,0.657-3.326-0.292
			c-0.794-0.949-0.661-2.529,0.276-3.339c0.936-0.809,2.51-0.718,3.354,0.186C236.433,173.734,236.192,175.436,235.247,176.235z"/>
		<path style="fill:#292F44;" d="M234.483,161.79c-0.845-0.904-2.418-0.995-3.354-0.186c-0.937,0.81-1.07,2.39-0.276,3.339
			c0.794,0.949,2.382,1.092,3.326,0.292C235.124,164.436,235.365,162.734,234.483,161.79z"/>
		<circle style="fill:#292F44;" cx="174.995" cy="297.703" r="5.205"/>
		<circle style="fill:#292F44;" cx="144.628" cy="327.946" r="3.462"/>
		<path style="fill:#292F44;" d="M162.763,209.137c-9.47,0.581-18.951,3.596-26.326,9.566c-7.374,5.97-12.427,15.068-12.472,24.556
			c-0.033,7.062,2.587,13.826,4.962,20.475c2.376,6.651,4.571,13.655,3.655,20.656c-1.608-1.024-3.375-0.889-4.862-0.163
			c-1.489,0.726-2.683,2.035-3.074,3.3c-6.045-9.507-11.778-19.392-14.807-30.244c-3.031-10.852-3.144-22.882,1.786-33.013
			c4.226-8.687,12.106-15.523,21.302-18.483C142.123,202.827,152.511,203.784,162.763,209.137z"/>
		<circle style="fill:#292F44;" cx="164.865" cy="244.317" r="4"/>
		<circle style="fill:#292F44;" cx="180.038" cy="200.135" r="4"/>
		<circle style="fill:#292F44;" cx="189.038" cy="194.885" r="4"/>
		<path style="fill:#292F44;" d="M214.828,197.29c0-1.571,1.273-2.844,2.845-2.844c1.571,0,2.844,1.273,2.844,2.844
			s-1.273,2.845-2.844,2.845C216.101,200.135,214.828,198.861,214.828,197.29z"/>
		<circle style="fill:#292F44;" cx="198.663" cy="193.881" r="3.125"/>
		<path style="fill:#292F44;" d="M205.038,195.165c0-1.571,1.273-2.844,2.845-2.844c1.571,0,2.844,1.273,2.844,2.844
			s-1.273,2.845-2.844,2.845C206.311,198.01,205.038,196.736,205.038,195.165z"/>
		<circle style="fill:#292F44;" cx="164.115" cy="232.317" r="4.75"/>
		<circle style="fill:#292F44;" cx="172.537" cy="208.317" r="4.75"/>
		<path style="fill:#292F44;" d="M161.692,220.317c0-2.995,2.428-5.422,5.422-5.422c2.995,0,5.423,2.427,5.423,5.422
			s-2.428,5.422-5.423,5.422C164.12,225.739,161.692,223.312,161.692,220.317z"/>
		<path style="fill:#292F44;" d="M87.522,250c0-2.536,2.056-4.592,4.593-4.592c2.536,0,4.592,2.056,4.592,4.592
			s-2.056,4.593-4.592,4.593C89.578,254.593,87.522,252.536,87.522,250z"/>
		<path style="fill:#292F44;" d="M84.522,237.067c0-3.365,2.728-6.093,6.093-6.093c3.365,0,6.092,2.728,6.092,6.093
			s-2.727,6.092-6.092,6.092C87.25,243.159,84.522,240.432,84.522,237.067z"/>
		<circle style="fill:#292F44;" cx="94.347" cy="220.987" r="6.58"/>
		<circle style="fill:#292F44;" cx="99.619" cy="207.237" r="6.58"/>
		<circle style="fill:#292F44;" cx="141.818" cy="184.305" r="6.58"/>
		<circle style="fill:#292F44;" cx="111.442" cy="194.885" r="7.386"/>
		<circle style="fill:#292F44;" cx="125.692" cy="186.495" r="7.386"/>
		<circle style="fill:#292F44;" cx="95.846" cy="261.25" r="3.772"/>
		<circle style="fill:#292F44;" cx="100.439" cy="271.68" r="3.772"/>
		<path style="fill:#292F44;" d="M101.417,280.507c0-1.903,1.542-3.446,3.445-3.446s3.446,1.543,3.446,3.446
			c0,1.902-1.543,3.445-3.446,3.445S101.417,282.409,101.417,280.507z"/>
		<path style="fill:#292F44;" d="M108.137,289.053c0-1.67,1.353-3.022,3.022-3.022s3.023,1.352,3.023,3.022
			c0,1.669-1.354,3.022-3.023,3.022S108.137,290.722,108.137,289.053z"/>
		<circle style="fill:#292F44;" cx="237.11" cy="289.453" r="5.205"/>
		<path style="fill:#292F44;" d="M212.346,287.703c2.304-2.13,5.208-3.603,7.927-4.055c0.458,3.954-1.066,8.089-3.98,10.801
			c-1.675,1.558-3.77,2.669-5.194,4.458c-2.663,3.346-2.191,8.573,0.597,11.816c2.788,3.242,7.43,4.542,11.654,3.875
			c2.763-0.437,5.422-1.662,7.435-3.604c2.013-1.941,3.347-4.613,3.524-7.405c0.065-1.039-0.316-2.397-1.357-2.444
			c-0.596-0.026-1.096,0.424-1.662,0.614c-1.459,0.49-3.039-1.109-2.82-2.632c0.219-1.524,1.791-2.604,3.33-2.627
			c1.539-0.025,2.983,0.805,4.087,1.878c3.477,3.383,3.887,9.21,1.54,13.457c-2.347,4.246-6.995,6.917-11.793,7.634
			c-5.886,0.88-12.128-1.025-16.521-5.039c-4.393-4.015-6.85-10.06-5.776-15.884c-2.337-1.111-4.3-2.994-5.506-5.284
			c-1.206-2.29-1.649-4.974-1.242-7.53c1.569,0.159,3.152,0.32,4.648,0.818c1.495,0.497,2.917,1.367,4.383,2.747
			c-2.323-2.307-3.566-5.657-3.31-8.921c0.988,0.556,1.975,1.111,3.267,1.844c0.178-4.757,2.474-9.395,5.971-12.007
			c-0.057,2.939,2.123,5.772,5.26,6.705C216.066,280.527,214.532,283.972,212.346,287.703z"/>
		<path style="fill:#292F44;" d="M273.426,184.552c-6.928,5.612-11.659,13.564-14.751,21.927
			c-3.094,8.362-4.667,17.196-6.322,26.486c3.232,2.555,5.625,6.152,7.43,10.112c5.152-7.993,6.45-17.806,7.307-27.277
			C267.947,206.329,268.558,196.574,273.426,184.552z"/>
		<path style="fill:#292F44;" d="M250,183.395c7.783,0,12.682-0.093,20.391,0.11c-6.439,6.13-11.023,14.225-14.243,22.738
			c-3.221,8.513-4.64,17.465-6.148,26.441c-1.508-8.976-2.927-17.928-6.148-26.441c-3.22-8.513-7.804-16.608-14.243-22.738
			C237.318,183.302,242.217,183.395,250,183.395z"/>
		<path style="fill:#292F44;" d="M269.667,141.396c-0.018-2.273,0.986-4.536,2.683-6.049c0.811-0.723,1.819-1.293,2.906-1.322
			c1.086-0.029,2.232,0.599,2.558,1.635c0.321,1.019-0.214,2.152-1.028,2.843c-0.815,0.691-1.861,1.034-2.879,1.357
			C272.888,140.183,271.841,140.516,269.667,141.396z"/>
		<path style="fill:#292F44;" d="M272.255,168.133c-2.162-0.281-4.373-0.534-6.508-0.09c-2.134,0.445-4.214,1.713-5.08,3.714
			c-1.072,2.476,0.072,5.57,2.278,7.123c2.206,1.554,5.209,1.689,7.748,0.778c4.096-1.47,7.064-5.644,8.075-11.285
			C276.615,168.719,274.418,168.414,272.255,168.133z M268.079,175.943c-0.794,0.949-2.382,1.092-3.326,0.292
			c-0.945-0.799-1.186-2.501-0.304-3.445c0.844-0.904,2.418-0.995,3.354-0.186C268.74,173.414,268.873,174.994,268.079,175.943z"/>
		<path style="fill:#292F44;" d="M265.517,161.79c0.845-0.904,2.418-0.995,3.354-0.186c0.937,0.81,1.07,2.39,0.276,3.339
			c-0.794,0.949-2.382,1.092-3.326,0.292C264.876,164.436,264.635,162.734,265.517,161.79z"/>
		<circle style="fill:#292F44;" cx="325.005" cy="297.703" r="5.205"/>
		<circle style="fill:#292F44;" cx="355.372" cy="327.946" r="3.462"/>
		<path style="fill:#292F44;" d="M337.237,209.137c9.47,0.581,18.951,3.596,26.326,9.566c7.374,5.97,12.427,15.068,12.472,24.556
			c0.033,7.062-2.587,13.826-4.962,20.475c-2.376,6.651-4.571,13.655-3.655,20.656c1.608-1.024,3.375-0.889,4.862-0.163
			c1.489,0.726,2.683,2.035,3.074,3.3c6.045-9.507,11.778-19.392,14.807-30.244c3.031-10.852,3.144-22.882-1.786-33.013
			c-4.226-8.687-12.106-15.523-21.302-18.483C357.877,202.827,347.489,203.784,337.237,209.137z"/>
		<circle style="fill:#292F44;" cx="335.135" cy="244.317" r="4"/>
		<circle style="fill:#292F44;" cx="319.962" cy="200.135" r="4"/>
		<circle style="fill:#292F44;" cx="310.962" cy="194.885" r="4"/>
		<path style="fill:#292F44;" d="M285.172,197.29c0-1.571-1.273-2.844-2.845-2.844c-1.571,0-2.844,1.273-2.844,2.844
			s1.273,2.845,2.844,2.845C283.899,200.135,285.172,198.861,285.172,197.29z"/>
		<circle style="fill:#292F44;" cx="301.337" cy="193.881" r="3.125"/>
		<path style="fill:#292F44;" d="M294.962,195.165c0-1.571-1.273-2.844-2.845-2.844c-1.571,0-2.844,1.273-2.844,2.844
			s1.273,2.845,2.844,2.845C293.689,198.01,294.962,196.736,294.962,195.165z"/>
		<circle style="fill:#292F44;" cx="335.885" cy="232.317" r="4.75"/>
		<circle style="fill:#292F44;" cx="327.463" cy="208.317" r="4.75"/>
		<path style="fill:#292F44;" d="M338.308,220.317c0-2.995-2.428-5.422-5.422-5.422c-2.995,0-5.423,2.427-5.423,5.422
			s2.428,5.422,5.423,5.422C335.88,225.739,338.308,223.312,338.308,220.317z"/>
		<path style="fill:#292F44;" d="M412.478,250c0-2.536-2.056-4.592-4.593-4.592c-2.536,0-4.592,2.056-4.592,4.592
			s2.056,4.593,4.592,4.593C410.422,254.593,412.478,252.536,412.478,250z"/>
		<path style="fill:#292F44;" d="M415.478,237.067c0-3.365-2.728-6.093-6.093-6.093c-3.365,0-6.092,2.728-6.092,6.093
			s2.727,6.092,6.092,6.092C412.75,243.159,415.478,240.432,415.478,237.067z"/>
		<circle style="fill:#292F44;" cx="405.653" cy="220.987" r="6.58"/>
		<circle style="fill:#292F44;" cx="400.381" cy="207.237" r="6.58"/>
		<circle style="fill:#292F44;" cx="358.182" cy="184.305" r="6.58"/>
		<path style="fill:#292F44;" d="M250.087,359.786c2.446-1.275,4.15-3.947,4.163-6.719c0.013-2.828-1.734-5.569-4.248-6.835h-0.004
			c-2.514,1.266-4.262,4.007-4.248,6.835c0.013,2.772,1.717,5.444,4.163,6.719"/>
		<circle style="fill:#292F44;" cx="388.558" cy="194.885" r="7.386"/>
		<circle style="fill:#292F44;" cx="374.308" cy="186.495" r="7.386"/>
		<circle style="fill:#292F44;" cx="404.154" cy="261.25" r="3.772"/>
		<circle style="fill:#292F44;" cx="399.561" cy="271.68" r="3.772"/>
		<path style="fill:#292F44;" d="M398.583,280.507c0-1.903-1.542-3.446-3.445-3.446c-1.903,0-3.446,1.543-3.446,3.446
			c0,1.902,1.543,3.445,3.446,3.445C397.041,283.952,398.583,282.409,398.583,280.507z"/>
		<path style="fill:#292F44;" d="M391.863,289.053c0-1.67-1.353-3.022-3.022-3.022s-3.023,1.352-3.023,3.022
			c0,1.669,1.354,3.022,3.023,3.022S391.863,290.722,391.863,289.053z"/>
		<circle style="fill:#292F44;" cx="262.89" cy="289.453" r="5.205"/>
		<path style="fill:#292F44;" d="M287.654,287.703c-2.304-2.13-5.208-3.603-7.927-4.055c-0.458,3.954,1.066,8.089,3.98,10.801
			c1.675,1.558,3.77,2.669,5.194,4.458c2.663,3.346,2.191,8.573-0.597,11.816c-2.788,3.242-7.43,4.542-11.654,3.875
			c-2.763-0.437-5.422-1.662-7.435-3.604c-2.013-1.941-3.347-4.613-3.524-7.405c-0.065-1.039,0.316-2.397,1.357-2.444
			c0.596-0.026,1.096,0.424,1.662,0.614c1.459,0.49,3.039-1.109,2.82-2.632c-0.219-1.524-1.791-2.604-3.33-2.627
			c-1.539-0.025-2.983,0.805-4.087,1.878c-3.477,3.383-3.887,9.21-1.54,13.457c2.347,4.246,6.995,6.917,11.793,7.634
			c5.886,0.88,12.128-1.025,16.521-5.039c4.393-4.015,6.85-10.06,5.776-15.884c2.337-1.111,4.3-2.994,5.506-5.284
			c1.206-2.29,1.649-4.974,1.242-7.53c-1.569,0.159-3.152,0.32-4.648,0.818c-1.495,0.497-2.917,1.367-4.383,2.747
			c2.323-2.307,3.566-5.657,3.31-8.921c-0.988,0.556-1.975,1.111-3.267,1.844c-0.178-4.757-2.474-9.395-5.971-12.007
			c0.057,2.939-2.123,5.772-5.26,6.705C283.934,280.527,285.468,283.972,287.654,287.703z"/>
		<path style="fill:#292F44;" d="M281.452,153.836c-0.23-3.103-2.172-6.139-5.09-7.222c-2.917-1.083-6.644,0.187-7.933,2.889
			c-3.71,0.093-7.368,1.582-10.087,4.106c-2.72,2.525-4.476,6.062-4.81,10.299c-0.109-3.137-0.216-6.31,0.41-9.386
			s2.064-6.095,4.537-8.029c1.568-1.225,3.461-1.955,5.132-3.034c1.67-1.08,3.201-2.697,3.345-4.681
			c0.193-2.653-2.404-4.966-5.064-5.024c-2.659-0.058-5.112,1.7-6.519,3.958c-1.407,2.258-1.927,4.951-2.598,7.648
			c0.193-2.96,0.392-5.953,1.281-8.783c0.889-2.829,2.552-5.523,5.084-7.067c1.895-1.157,4.146-1.602,6.093-2.669
			c1.947-1.068,3.665-3.165,3.174-5.498c-1.942,0.344-3.9,0.693-5.73,1.428c-1.83,0.735-3.547,1.895-4.916,3.761
			c0.703-2.152,0.52-4.579-0.498-6.601c-1.018-2.021-2.859-3.613-4.829-4.239c2.068-0.203,3.721-2.369,3.371-4.418
			c-0.393,0.553-1.301,0.488-1.796,0.026c-0.496-0.463-0.667-1.174-0.742-1.848c-0.076-0.673-0.068-1.378-0.345-1.997
			c-0.552-1.232-1.873-1.624-2.922-1.624c-1.049,0-2.37,0.391-2.922,1.624c-0.277,0.619-0.269,1.324-0.345,1.997
			c-0.075,0.674-0.246,1.385-0.742,1.848c-0.495,0.462-1.403,0.527-1.796-0.026c-0.35,2.049,1.303,4.215,3.371,4.418
			c-1.97,0.626-3.811,2.218-4.829,4.239c-1.018,2.022-1.201,4.449-0.498,6.601c-1.369-1.866-3.086-3.026-4.916-3.761
			s-3.788-1.084-5.73-1.428c-0.491,2.333,1.227,4.43,3.174,5.498c1.947,1.067,4.198,1.512,6.093,2.669
			c2.532,1.544,4.195,4.238,5.084,7.067c0.889,2.83,1.088,5.823,1.281,8.783c-0.671-2.697-1.191-5.39-2.598-7.648
			c-1.407-2.258-3.86-4.016-6.519-3.958c-2.66,0.058-5.257,2.371-5.064,5.024c0.144,1.984,1.675,3.601,3.345,4.681
			c1.671,1.079,3.564,1.809,5.132,3.034c2.473,1.934,3.911,4.953,4.537,8.029c0.626,3.076,0.519,6.249,0.41,9.386
			c-0.334-4.237-2.09-7.774-4.81-10.299c-2.719-2.524-6.377-4.013-10.087-4.106c-1.289-2.702-5.016-3.972-7.933-2.889
			c-2.918,1.083-4.86,4.119-5.09,7.222c-0.114,1.541,0.157,3.138,0.958,4.459c0.8,1.322,2.166,2.334,3.699,2.525
			c4.535,0.564,7.645-5.636,12.21-5.432c1.593,0.072,3.051,0.955,4.213,2.047c2.76,2.598,4.175,6.555,3.687,10.313
			c-0.267,2.057-1.065,4.053-1,6.125c0.066,2.128,1.098,4.206,2.753,5.544c1.655,1.339,3.084,1.659,4.932,1.659
			c1.848,0,3.277-0.32,4.932-1.659c1.655-1.338,2.687-3.416,2.753-5.544c0.065-2.072-0.733-4.068-1-6.125
			c-0.488-3.758,0.927-7.715,3.687-10.313c1.162-1.092,2.62-1.975,4.213-2.047c4.565-0.204,7.675,5.996,12.21,5.432
			c1.533-0.191,2.899-1.203,3.699-2.525C281.295,156.974,281.566,155.377,281.452,153.836z M226.434,154.641
			c-0.798,0.844-2.283,0.902-3.145,0.124c-0.863-0.778-0.956-2.261-0.198-3.142c0.758-0.88,2.238-1.008,3.136-0.271
			C227.288,152.223,227.232,153.798,226.434,154.641z M276.711,154.766c-0.862,0.778-2.347,0.72-3.145-0.124
			c-0.798-0.844-0.854-2.418,0.207-3.289c0.898-0.737,2.378-0.609,3.136,0.271C277.667,152.505,277.574,153.988,276.711,154.766z"/>
		<g>
			<path style="fill:#292F44;" d="M394.931,267.59c5.016-12.794,6.252-27.253,2.239-40.395
				c-4.014-13.143-13.531-24.761-26.16-30.178c-12.628-5.417-28.215-4.066-38.323,6.017c10.695-6.152,24.352-6.477,35.64-1.499
				c11.288,4.978,20.101,14.964,24.351,26.546c4.25,11.583,4.058,24.606,0.193,36.322c-3.864,11.717-11.28,22.127-20.452,30.032
				c0.749-1.728,0.178-3.872-1.186-5.17c-1.365-1.297-3.392-1.776-5.247-1.461c-1.857,0.314-3.54,1.356-5.19,2.962
				c0.911-2.191,2.499-4.094,4.345-5.22c0.498-3.433,0.379-6.954-0.968-10.323c-2.599,0.091-5.151,1.163-7.198,3.134
				c0.261-3.009-0.044-6.067-0.888-8.828c-1.617,2.285-3.617,4.297-6.332,6.569c-0.583,4.22-0.767,8.497-0.765,12.542
				c-1.433-2.415-3.61-4.381-6.108-5.126c0.333,3.957-0.358,7.997-1.888,11.315c3.325,1.629,5.565,5.26,5.531,8.962
				c-0.007,0.668-0.092,1.365-0.463,1.92c-0.372,0.555-1.101,0.917-1.727,0.684c-0.527-0.197-0.833-0.727-1.16-1.184
				c-0.326-0.457-0.812-0.912-1.367-0.827c-0.521,0.079-0.851,0.601-1.03,1.097c-0.463,1.278-0.348,2.829,0.556,3.843
				c0.904,1.016,2.664,1.247,3.526,0.447c-0.968,5.303-4.685,10.026-9.612,12.212c-3.125,1.387-6.83,1.753-9.948,0.352
				c-3.117-1.401-5.413-4.798-4.94-8.184c0.303-2.18,1.949-4.291,4.139-4.521c0.938-0.1,1.876,0.141,2.819,0.169
				c0.941,0.028,1.994-0.226,2.501-1.02c0.602-0.943,0.124-2.291-0.792-2.931c-0.916-0.641-2.121-0.71-3.228-0.556
				c-4.374,0.607-7.943,4.547-8.494,8.928c-0.552,4.381,1.722,8.895,5.357,11.401c3.636,2.506,8.437,3.069,12.897,2.577
				c-4.981,2.699-11.449,1.876-16.065-1.408c-4.616-3.283-7.441-8.716-8.278-14.318c-0.837-5.603,0.17-11.361,2.087-16.691
				c0.894-2.487,2.01-4.944,3.754-6.929c1.744-1.987,4.195-3.468,6.836-3.572c2.641-0.103,5.402,1.39,6.772,4.142
				c-0.53-4.004-3.763-7.507-7.963-8.792c1.224-1.625,3.167-2.547,5.11-3.155c1.942-0.608,3.968-0.967,5.837-1.775
				c4.976-2.15,8.28-7.661,7.479-13.397c-2.759,2.076-5.918,3.618-9.238,4.273c4.863-3.71,8.258-9.295,8.975-15.589
				c-2.736,2.307-6.374,3.14-9.74,4.356c-3.366,1.217-6.848,3.181-8.456,6.859c4.505-12.458,4.876-26.372,1.04-39.052
				c-1.997-6.598-5.274-13.073-10.726-17.291c-5.713-4.42-13.289-5.903-20.493-5.379c-7.203,0.523-14.139,2.888-20.098,6.133
				c4.983-0.423,9.994-0.846,14.976-0.424c4.983,0.421,9.983,1.734,14.134,4.523c6.211,4.173,9.956,11.314,11.468,18.643
				c1.512,7.329,1.023,14.913,0.006,21.709c-1.812-3.166-4.415-5.875-7.898-7.328c-1.949,5.891-0.51,12.778,3.403,17.373
				c-2.947-3.625-6.894-6.428-11.815-8.178c0.032,2.673,0.068,5.367,0.641,7.978c0.573,2.612,1.729,5.165,3.697,6.975
				c1.288,1.184,2.868,2.006,4.206,3.132c1.339,1.127,2.476,2.722,1.918,4.702c-1.188-1.694-3.35-2.649-5.402-2.385
				c-2.051,0.264-3.902,1.734-4.377,4.015c3.806-1.703,8.495,0.784,10.434,4.475c1.938,3.693,1.721,8.142,0.912,12.233
				c-1.797,9.092-6.501,17.815-13.975,23.295c-7.473,5.48-17.847,7.282-26.298,3.479c-5.996-2.698-10.646-7.974-13.2-14.032
				c-2.554-6.059-3.111-12.842-2.269-19.362c0.536-4.146,1.921-8.634,5.508-10.78c3.04-1.818,7.274-1.333,10.089,1.369
				c-0.377-2.215-1.734-4.246-3.636-5.443c-1.902-1.197-4.32-1.542-7.191-0.868c1.398-2.172,3.753-3.702,6.306-4.099
				c2.552-0.396,5.26,0.348,7.266,2.116c4.003-5.346,6.226-12.002,5.678-19.064c-2.639,0.931-5.325,1.887-7.559,3.571
				c-1.732,1.307-3.122,3.009-4.528,4.912c4.036-5.741,6.269-12.727,6.002-19.781c-4.836,1.63-9.278,4.416-13.285,8.264
				c-0.075-2.904-0.387-5.921-1.893-8.406c-1.505-2.485-3.358-3.434-5.71-3.434c-2.353,0-4.205,0.949-5.71,3.434
				c-1.506,2.485-1.818,5.502-1.893,8.406c-4.007-3.848-8.449-6.634-13.285-8.264c-0.267,7.054,1.966,14.04,6.002,19.781
				c-1.407-1.902-2.796-3.604-4.528-4.912c-2.234-1.684-4.92-2.64-7.559-3.571c-0.548,7.062,1.675,13.718,5.678,19.064
				c2.006-1.768,4.714-2.512,7.266-2.116c2.553,0.397,4.908,1.927,6.306,4.099c-2.871-0.674-5.289-0.329-7.191,0.868
				c-1.902,1.197-3.259,3.228-3.636,5.443c2.815-2.702,7.049-3.187,10.089-1.369c3.587,2.146,4.972,6.634,5.508,10.78
				c0.842,6.52,0.285,13.303-2.269,19.362c-2.554,6.058-7.204,11.334-13.2,14.032c-8.451,3.803-18.825,2.001-26.298-3.479
				c-7.474-5.48-12.178-14.203-13.975-23.295c-0.809-4.091-1.026-8.54,0.912-12.233c1.939-3.691,6.628-6.178,10.434-4.475
				c-0.475-2.281-2.326-3.751-4.377-4.015c-2.052-0.264-4.214,0.691-5.402,2.385c-0.558-1.98,0.579-3.575,1.918-4.702
				c1.338-1.126,2.918-1.948,4.206-3.132c1.968-1.81,3.124-4.363,3.697-6.975c0.573-2.611,0.609-5.305,0.641-7.978
				c-4.921,1.75-8.868,4.553-11.815,8.178c3.913-4.595,5.352-11.482,3.403-17.373c-3.483,1.453-6.086,4.162-7.898,7.328
				c-1.017-6.796-1.506-14.38,0.006-21.709c1.512-7.329,5.257-14.47,11.468-18.643c4.151-2.789,9.151-4.102,14.134-4.523
				c4.982-0.422,9.993,0.001,14.976,0.424c-5.959-3.245-12.895-5.61-20.098-6.133c-7.204-0.524-14.78,0.959-20.493,5.379
				c-5.452,4.218-8.729,10.693-10.726,17.291c-3.836,12.68-3.465,26.594,1.04,39.052c-1.608-3.678-5.09-5.642-8.456-6.859
				c-3.366-1.216-7.004-2.049-9.74-4.356c0.717,6.294,4.112,11.879,8.975,15.589c-3.32-0.655-6.479-2.197-9.238-4.273
				c-0.801,5.736,2.503,11.247,7.479,13.397c1.869,0.808,3.895,1.167,5.837,1.775c1.943,0.608,3.886,1.53,5.11,3.155
				c-4.2,1.285-7.433,4.788-7.963,8.792c1.37-2.752,4.131-4.245,6.772-4.142c2.641,0.104,5.092,1.585,6.836,3.572
				c1.744,1.985,2.86,4.442,3.754,6.929c1.917,5.33,2.924,11.088,2.087,16.691c-0.837,5.602-3.662,11.035-8.278,14.318
				c-4.616,3.284-11.084,4.107-16.065,1.408c4.46,0.492,9.261-0.071,12.897-2.577c3.635-2.506,5.909-7.02,5.357-11.401
				c-0.551-4.381-4.12-8.321-8.494-8.928c-1.107-0.154-2.312-0.085-3.228,0.556c-0.916,0.64-1.394,1.988-0.792,2.931
				c0.507,0.794,1.56,1.048,2.501,1.02c0.943-0.028,1.881-0.269,2.819-0.169c2.19,0.23,3.836,2.341,4.139,4.521
				c0.473,3.386-1.823,6.783-4.94,8.184c-3.118,1.401-6.823,1.035-9.948-0.352c-4.927-2.186-8.644-6.909-9.612-12.212
				c0.862,0.8,2.622,0.569,3.526-0.447c0.904-1.014,1.019-2.565,0.556-3.843c-0.179-0.496-0.509-1.018-1.03-1.097
				c-0.555-0.085-1.041,0.37-1.367,0.827c-0.327,0.457-0.633,0.987-1.16,1.184c-0.626,0.233-1.355-0.129-1.727-0.684
				c-0.371-0.555-0.456-1.252-0.463-1.92c-0.034-3.702,2.206-7.333,5.531-8.962c-1.53-3.318-2.221-7.358-1.888-11.315
				c-2.498,0.745-4.675,2.711-6.108,5.126c0.002-4.045-0.182-8.322-0.765-12.542c-2.715-2.272-4.715-4.284-6.332-6.569
				c-0.844,2.761-1.149,5.819-0.888,8.828c-2.047-1.971-4.599-3.043-7.198-3.134c-1.347,3.369-1.466,6.89-0.968,10.323
				c1.846,1.126,3.434,3.029,4.345,5.22c-1.65-1.606-3.333-2.648-5.19-2.962c-1.855-0.315-3.882,0.164-5.247,1.461
				c-1.364,1.298-1.935,3.442-1.186,5.17c-9.172-7.905-16.588-18.315-20.452-30.032c-3.865-11.716-4.057-24.739,0.193-36.322
				c4.25-11.582,13.063-21.568,24.351-26.546s24.945-4.653,35.64,1.499c-10.108-10.083-25.695-11.434-38.323-6.017
				c-12.629,5.417-22.146,17.035-26.16,30.178c-4.013,13.142-2.777,27.601,2.239,40.395c5.017,12.793,13.651,23.978,23.926,33.102
				c-4.6,0.003-7.859-0.215-10.819,0.79c-2.96,1.005-5.56,3.391-6.252,6.44c-0.692,3.049,0.917,6.617,3.871,7.641
				c0.872,0.302,1.858,0.376,2.704,0.009s1.502-1.244,1.431-2.164c-0.092-1.188-1.253-2.004-1.669-3.122
				c-0.615-1.652,0.594-3.499,2.134-4.358c2.709-1.512,6.169-0.863,8.888,0.632c3.347,1.838,6.005,4.898,7.358,8.468
				c1.353,3.572,1.391,7.624,0.103,11.219c-0.681-2.67-1.625-5.416-3.569-7.312c-1.945-1.897-4.994-2.769-7.497-1.716
				c-0.337,0.141-0.683,0.338-0.835,0.67c-0.235,0.515,0.116,1.138,0.603,1.428c0.486,0.289,1.071,0.342,1.629,0.446
				c2.735,0.506,5.16,2.458,6.237,5.022c0.533,1.266,0.661,2.929-0.374,3.831c-0.855,0.745-2.131,0.657-3.258,0.526
				c0.104,2.155,2.413,3.508,4.732,3.43c4.949,4.137,9.135,9.567,12.021,15.652c0.91,2.148,1.498,4.548,0.249,5.293
				c-1.099,0.615-1.695,0.355-3.692-0.43c-2.739-1.076-4.528,1.556-2.022,4.032c1.17,1.156,2.766,1.735,4.109,1.688l-0.015,0.014
				c1.18-0.141,2.871,0.362,3.298,1.644c0.66,1.595,0.832,3.766,1.093,5.756c0.547,4.172,1.855,8.24,3.825,11.959l-0.006,0.003
				c0.608,1.099,0.57,2.369-1.02,2.589c-1.59,0.22-4.46,1.711-3.652,3.326c1.011,2.022,4.158,1.011,5.592,0.293
				c1.435-0.717,6.506,1.304,11.136,5.087c4.63,3.783,16.217,20.152,84.674,20.152s80.043-16.37,84.674-20.152
				c4.63-3.783,9.701-5.804,11.136-5.087c1.435,0.717,4.582,1.728,5.592-0.293c0.807-1.615-2.063-3.106-3.652-3.326
				c-1.59-0.22-1.628-1.489-1.02-2.589l-0.006-0.003c1.97-3.718,3.277-7.787,3.824-11.959c0.261-1.99,0.433-4.161,1.093-5.756
				c0.428-1.282,2.119-1.784,3.298-1.644l-0.015-0.014c1.342,0.048,2.939-0.532,4.109-1.688c2.506-2.476,0.717-5.108-2.022-4.032
				c-1.997,0.785-2.593,1.045-3.692,0.43c-1.249-0.745-0.662-3.145,0.249-5.293c2.886-6.084,7.072-11.515,12.021-15.652
				c2.319,0.078,4.628-1.275,4.732-3.43c-1.127,0.131-2.403,0.219-3.258-0.526c-1.035-0.902-0.907-2.565-0.374-3.831
				c1.077-2.564,3.502-4.516,6.237-5.022c0.558-0.104,1.143-0.157,1.629-0.446c0.487-0.29,0.838-0.913,0.603-1.428
				c-0.152-0.332-0.498-0.529-0.835-0.67c-2.503-1.053-5.552-0.181-7.497,1.716c-1.944,1.896-2.888,4.642-3.569,7.312
				c-1.288-3.595-1.25-7.647,0.103-11.219c1.353-3.57,4.011-6.63,7.358-8.468c2.719-1.495,6.179-2.144,8.888-0.632
				c1.54,0.859,2.749,2.706,2.134,4.358c-0.416,1.118-1.577,1.934-1.669,3.122c-0.071,0.92,0.585,1.797,1.431,2.164
				s1.832,0.293,2.704-0.009c2.954-1.024,4.563-4.592,3.871-7.641c-0.692-3.049-3.292-5.435-6.252-6.44s-6.219-0.787-10.819-0.79
				C381.28,291.568,389.914,280.383,394.931,267.59z M317.346,266.475c2.875,0,5.205,2.33,5.205,5.205s-2.33,5.205-5.205,5.205
				s-5.205-2.33-5.205-5.205S314.471,266.475,317.346,266.475z M182.654,276.885c-2.875,0-5.205-2.33-5.205-5.205
				s2.33-5.205,5.205-5.205s5.205,2.33,5.205,5.205S185.529,276.885,182.654,276.885z M343.152,333.815
				c1.891,0,3.424,1.533,3.424,3.424s-1.533,3.424-3.424,3.424s-3.424-1.533-3.424-3.424S341.261,333.815,343.152,333.815z
				 M308.409,321.292c2.197,12.593,13.161,11.161,13.161,11.161s-5.704,4.239-11.406-0.238
				C305.749,328.748,308.409,321.292,308.409,321.292z M303.558,319.68c0,0,2.811,14.526-15.189,10.809
				C288.37,330.489,297.91,330.687,303.558,319.68z M244.795,259.798c0-2.875,2.33-5.205,5.205-5.205s5.205,2.33,5.205,5.205
				s-2.33,5.205-5.205,5.205S244.795,262.673,244.795,259.798z M250,322.256c1.891,0,3.424,1.533,3.424,3.424
				c0,1.891-1.533,3.424-3.424,3.424s-3.424-1.533-3.424-3.424C246.576,323.789,248.109,322.256,250,322.256z M196.442,319.68
				c5.648,11.007,15.189,10.809,15.189,10.809C193.63,334.207,196.442,319.68,196.442,319.68z M191.591,321.292
				c0,0,2.66,7.457-1.756,10.923c-5.702,4.477-11.406,0.238-11.406,0.238S189.394,333.884,191.591,321.292z M156.848,333.815
				c1.891,0,3.424,1.533,3.424,3.424s-1.533,3.424-3.424,3.424c-1.891,0-3.424-1.533-3.424-3.424S154.957,333.815,156.848,333.815z
				 M153.859,349.209c1-0.577,25.296-14.144,96.141-14.144s95.141,13.566,96.14,14.144c0.479,0.276,0.642,0.887,0.366,1.365
				c-0.276,0.478-0.887,0.645-1.365,0.367c-0.242-0.139-24.964-12.876-95.141-12.876s-94.899,12.737-95.141,12.876
				c-0.157,0.091-0.328,0.134-0.498,0.134c-0.346,0-0.683-0.18-0.868-0.501C153.218,350.096,153.382,349.485,153.859,349.209z
				 M345.618,363.243c-0.136,1.426-0.87,2.787-1.989,3.681c-0.919-1.196-1.427-2.713-1.341-4.203
				c0.085-1.49,0.764-2.938,1.855-3.958C345.286,360.344,345.752,361.817,345.618,363.243z M316.495,354.842
				c-0.19,1.743,0.87,3.555,2.49,4.226c1.62,0.672,3.663,0.134,4.727-1.26c1.064-1.394,1.041-3.519-0.068-4.877
				c1.792-0.005,3.304,1.675,3.461,3.46s-0.819,3.534-2.2,4.676c-1.977,1.638-4.816,2.169-7.252,1.358
				c-2.436-0.812-4.388-2.939-4.988-5.436c-0.491-2.04-0.025-4.388,1.526-5.801c1.55-1.414,4.233-1.561,5.625,0.024
				C318.098,351.564,316.685,353.098,316.495,354.842z M319.913,353.659c0.751-0.408,1.803-0.108,2.227,0.634
				c0.424,0.742,0.147,1.8-0.586,2.24c-0.732,0.439-1.796,0.187-2.252-0.537C318.846,355.273,319.035,354.135,319.913,353.659z
				 M287.076,351.115c-0.091-1.427-1.133-2.891-2.56-2.964c-1.759-0.091-2.97,1.875-3.056,3.634c-0.157,3.193,2.116,6.2,5.055,7.459
				c2.938,1.259,6.371,0.966,9.345-0.208c2.974-1.174,5.554-3.158,7.952-5.272c-1.35,4.762-6.219,8.619-11.486,8.944
				c-5.266,0.324-10.571-2.908-12.698-7.737c-0.85-1.93-1.205-4.211-0.339-6.134c0.951-2.116,3.407-3.441,5.697-3.075
				c2.29,0.367,4.21,2.391,4.455,4.698c0.245,2.305-1.207,4.688-3.37,5.527C286.548,353.909,287.167,352.541,287.076,351.115z
				 M294.413,353.659c0.751-0.408,1.803-0.108,2.227,0.634c0.424,0.742,0.147,1.8-0.586,2.24c-0.732,0.439-1.796,0.187-2.252-0.537
				C293.346,355.273,293.535,354.135,294.413,353.659z M298.913,351.125c0.751-0.407,1.803-0.108,2.227,0.634
				c0.424,0.742,0.147,1.801-0.586,2.24c-0.732,0.44-1.796,0.187-2.252-0.536C297.846,352.739,298.035,351.602,298.913,351.125z
				 M255.88,358.56c-1.548,2.071-3.648,3.652-5.88,4.974c-2.232-1.322-4.332-2.903-5.88-4.974c-1.781-2.383-2.752-5.509-2.021-8.395
				c0.527-2.079,1.887-3.879,3.547-5.238c1.311-1.074,2.805-1.897,4.351-2.603h0.005c1.546,0.706,3.04,1.528,4.351,2.603
				c1.66,1.359,3.02,3.159,3.547,5.238C258.632,353.051,257.661,356.177,255.88,358.56z M204.14,359.036
				c2.974,1.174,6.407,1.467,9.345,0.208c2.939-1.259,5.212-4.266,5.055-7.459c-0.086-1.759-1.297-3.725-3.056-3.634
				c-1.427,0.073-2.469,1.537-2.56,2.964c-0.091,1.426,0.528,2.794,1.005,4.872c-2.163-0.839-3.615-3.222-3.37-5.527
				c0.245-2.307,2.165-4.331,4.455-4.698c2.29-0.366,4.746,0.959,5.697,3.075c0.866,1.923,0.511,4.204-0.339,6.134
				c-2.127,4.829-7.432,8.061-12.698,7.737c-5.267-0.325-10.136-4.182-11.486-8.944C198.586,355.878,201.166,357.862,204.14,359.036
				z M198.86,351.759c0.424-0.742,1.476-1.041,2.227-0.634c0.878,0.477,1.067,1.614,0.611,2.338
				c-0.456,0.723-1.52,0.976-2.252,0.536C198.713,353.56,198.436,352.501,198.86,351.759z M203.36,354.293
				c0.424-0.742,1.476-1.042,2.227-0.634c0.878,0.476,1.067,1.614,0.611,2.337c-0.456,0.724-1.52,0.976-2.252,0.537
				C203.213,356.093,202.936,355.035,203.36,354.293z M176.288,357.808c1.064,1.394,3.107,1.932,4.727,1.26
				c1.62-0.671,2.68-2.483,2.49-4.226c-0.19-1.744-1.603-3.278-3.321-3.63c1.392-1.585,4.075-1.438,5.625-0.024
				c1.551,1.413,2.017,3.761,1.526,5.801c-0.6,2.497-2.552,4.624-4.988,5.436c-2.436,0.811-5.275,0.28-7.252-1.358
				c-1.381-1.142-2.357-2.891-2.2-4.676s1.669-3.465,3.461-3.46C175.247,354.289,175.224,356.414,176.288,357.808z M177.86,354.293
				c0.424-0.742,1.476-1.042,2.227-0.634c0.878,0.476,1.067,1.614,0.611,2.337c-0.456,0.724-1.52,0.976-2.252,0.537
				C177.713,356.093,177.436,355.035,177.86,354.293z M157.712,362.721c0.086,1.49-0.422,3.007-1.341,4.203
				c-1.119-0.894-1.853-2.255-1.989-3.681c-0.134-1.426,0.332-2.899,1.475-4.48C156.948,359.783,157.627,361.231,157.712,362.721z
				 M136.398,299.623c0.864-1.596,2.615-2.621,4.422-2.791c1.807-0.171,3.639,0.454,5.597,1.824
				c-1.983-0.727-4.291-0.501-6.095,0.596c-1.804,1.096-3.067,3.042-3.43,5.456C135.678,303.358,135.533,301.219,136.398,299.623z
				 M142.275,332.772c-0.988-0.317-1.921-0.894-2.502-1.753c-0.875-1.292-0.831-3.016-0.387-4.512
				c0.443-1.496,1.237-2.862,1.797-4.319c2.098-5.462,0.459-12.15-3.539-16.188c2.793-1.729,6.62-0.978,9.178,1.084
				c2.558,2.062,4.048,5.17,5.051,8.299c0.834,2.604,1.391,5.34,1.182,8.066c-0.208,2.728-1.243,5.458-3.219,7.35
				C147.861,332.69,144.878,333.611,142.275,332.772z M152.47,370.393c-1.051-1.948-1.621-4.243-1.219-6.282
				c2.449,2.019,4.191,4.878,4.965,7.57c-0.157-2.368,1.386-4.495,3.006-6.229c1.621-1.735,3.466-3.423,4.168-5.691
				c0.385-1.245,0.253-2.856-0.876-3.505c-0.809-0.465-1.899-0.236-2.588,0.393c-0.69,0.629-1.019,1.578-1.188,2.593
				c-0.661-1.298-0.4-3.005,0.618-4.047c1.019-1.041,2.72-1.34,4.033-0.708c1.773,0.853,2.52,3.092,2.246,5.041
				c-0.275,1.949-1.345,3.682-2.391,5.349c-2.222,3.542-4.444,7.085-6.735,10.764C155.022,374.002,153.521,372.341,152.47,370.393z
				 M305.07,398.39c-16.103,4.34-36.176,6.828-55.07,6.828c-40.579,0-78.783-10.429-78.783-18.512c0-1.171,0.809-2.263,2.305-3.274
				c0.005-0.006,0.006-0.014,0.011-0.02c0.068-0.079,0.157-0.123,0.25-0.149c9.368-5.967,43.36-9.465,76.614-9.465
				c36.343,0,78.385,3.412,78.385,11.908C328.782,389.588,319.696,394.448,305.07,398.39z M338.171,380.008
				c-0.152,0.399-0.532,0.645-0.935,0.645c-0.118,0-0.238-0.021-0.355-0.065c-0.282-0.107-28.922-9.739-86.881-9.739
				c-57.96,0-86.599,9.632-86.881,9.739c-0.514,0.198-1.094-0.063-1.29-0.579c-0.196-0.516,0.063-1.094,0.579-1.29
				c0.286-0.108,29.214-10.87,87.593-10.87c58.378,0,87.307,10.762,87.592,10.87C338.108,378.914,338.367,379.492,338.171,380.008z
				 M347.53,370.393c-1.051,1.948-2.552,3.609-4.039,5.248c-2.291-3.679-4.513-7.222-6.735-10.764
				c-1.046-1.667-2.116-3.4-2.391-5.349c-0.274-1.949,0.473-4.188,2.246-5.041c1.313-0.632,3.014-0.333,4.033,0.708
				c1.018,1.042,1.279,2.749,0.618,4.047c-0.169-1.015-0.498-1.964-1.188-2.593c-0.689-0.629-1.779-0.858-2.588-0.393
				c-1.129,0.649-1.261,2.26-0.876,3.505c0.702,2.268,2.547,3.956,4.168,5.691c1.62,1.734,3.163,3.861,3.006,6.229
				c0.774-2.692,2.516-5.551,4.965-7.57C349.151,366.15,348.581,368.445,347.53,370.393z M358.817,322.188
				c0.56,1.457,1.354,2.823,1.797,4.319c0.444,1.496,0.488,3.22-0.387,4.512c-0.581,0.859-1.514,1.436-2.502,1.753
				c-2.603,0.839-5.586-0.082-7.561-1.973c-1.976-1.892-3.011-4.622-3.219-7.35c-0.209-2.726,0.348-5.462,1.182-8.066
				c1.003-3.129,2.493-6.237,5.051-8.299c2.558-2.062,6.385-2.813,9.178-1.084C358.358,310.038,356.719,316.726,358.817,322.188z
				 M363.107,304.708c-0.363-2.414-1.626-4.36-3.43-5.456c-1.804-1.097-4.112-1.323-6.095-0.596c1.958-1.37,3.79-1.995,5.597-1.824
				c1.807,0.17,3.558,1.195,4.422,2.791C364.466,301.219,364.321,303.358,363.107,304.708z"/>
			<path style="fill:#292F44;" d="M326.575,383.696c0.012,0.154-0.038,0.312-0.165,0.421c-0.725,0.617-18.414,15.123-76.41,15.123
				c-55.056,0-73.787-13.071-76.164-14.924c-1.058,0.769-1.619,1.569-1.619,2.391c0,6.756,35.597,17.153,77.783,17.153
				c44.155,0,77.782-11.979,77.782-18.153C327.782,385.011,327.357,384.34,326.575,383.696z"/>
			<path style="fill:#292F44;" d="M325.762,383.354c0.064-0.054,0.137-0.083,0.213-0.1c-4.132-2.735-15.212-4.951-31.19-6.361
				c-0.057,0.137-0.166,0.251-0.32,0.294c-0.151,0.042-15.471,4.66-44.465,4.66c-28.189,0-43.447-4.388-44.412-4.646
				c-15.048,1.525-26.125,3.819-30.844,6.532c3.265,2.32,22.926,14.06,75.256,14.06
				C307.543,397.793,325.587,383.503,325.762,383.354z"/>
			<path style="fill:#292F44;" d="M292.272,376.684c-11.876-0.956-26.22-1.489-42.272-1.489c-15.271,0-29.375,0.622-41.269,1.704
				c5.7,1.185,19.655,3.514,41.269,3.514C273.028,380.413,287.353,377.771,292.272,376.684z"/>
		</g>
	</g>
</g>
</svg>
